<svg xmlns="http://www.w3.org/2000/svg" viewBox="0 0 48 48"><title>icon-vp-no-cost</title><g id="Layer_2" data-name="Layer 2"><g id="Layer_1-2" data-name="Layer 1"><path d="M32.52,41a8.52,8.52,0,0,1,13.3-7A24,24,0,1,0,34,45.82,8.48,8.48,0,0,1,32.52,41Z" style="fill:#620724"/><path d="M41,34.24a6.79,6.79,0,1,0,4.8,2A6.77,6.77,0,0,0,41,34.24Zm-3.26,10a4.6,4.6,0,0,1-.66-5.68l6.34,6.34a4.6,4.6,0,0,1-5.68-.66ZM45.64,41a4.57,4.57,0,0,1-.69,2.42l-6.34-6.34a4.6,4.6,0,0,1,7,3.91Z" style="fill:#d2b066"/><path d="M29.6,32.36a7.22,7.22,0,0,1-4.25,1.83v2.19a1.07,1.07,0,0,1-.27.77,1.07,1.07,0,0,1-1.45,0,1.07,1.07,0,0,1-.27-.77V34.22A12.56,12.56,0,0,1,20,33.54a7.8,7.8,0,0,1-2.76-1.62,1.18,1.18,0,0,1-.45-1,1.12,1.12,0,0,1,.23-.7.66.66,0,0,1,.54-.3,1.61,1.61,0,0,1,.82.31,9.9,9.9,0,0,0,5.71,2,5.73,5.73,0,0,0,3.5-.94,3.14,3.14,0,0,0,1.25-2.67A2.25,2.25,0,0,0,28.21,27a4.35,4.35,0,0,0-1.62-1,25.39,25.39,0,0,0-2.66-.75,26.41,26.41,0,0,1-3.48-1.08,5.79,5.79,0,0,1-2.26-1.65,4.47,4.47,0,0,1-.94-3A5.15,5.15,0,0,1,18,16.75a5.76,5.76,0,0,1,2.15-2,8,8,0,0,1,3.17-.94V11.62a1,1,0,0,1,.28-.75.94.94,0,0,1,.71-.3,1,1,0,0,1,.72.28,1.07,1.07,0,0,1,.27.77v2.19a10.17,10.17,0,0,1,2.9.71,6.86,6.86,0,0,1,2.36,1.56,1.21,1.21,0,0,1,.48,1,1.07,1.07,0,0,1-.24.7.7.7,0,0,1-.55.3,1.37,1.37,0,0,1-.8-.31A9.74,9.74,0,0,0,27,16.22a7.2,7.2,0,0,0-2.74-.48,5.4,5.4,0,0,0-3.43,1,3.25,3.25,0,0,0-1.27,2.7,2.6,2.6,0,0,0,.7,1.9A4.66,4.66,0,0,0,22,22.44a28,28,0,0,0,2.81.84,25.45,25.45,0,0,1,3.34,1,5.47,5.47,0,0,1,2.15,1.55,4.14,4.14,0,0,1,.88,2.77A5,5,0,0,1,29.6,32.36Z" style="fill:#fff"/></g></g></svg>