<svg xmlns="http://www.w3.org/2000/svg" viewBox="0 0 48 48"><title>icon-vp-free-consultation</title><g id="Layer_2" data-name="Layer 2"><g id="Layer_1-2" data-name="Layer 1"><circle cx="24" cy="24" r="24" style="fill:#620724"/><g id="Layer_2-2" data-name="Layer 2"><g id="Layer_1-2-2" data-name="Layer 1-2"><path d="M20.92,14.72h1.54a26.63,26.63,0,0,0-1.54,3.07h2.23a12,12,0,0,1,.84-2.6,10.9,10.9,0,0,1,.84,2.6h2.23a23.43,23.43,0,0,0-1.54-3.07h1.54a2.32,2.32,0,0,0,2.33-2.31,2.29,2.29,0,0,0-2.27-2.31h0A4.05,4.05,0,0,0,24,11.89a4.11,4.11,0,0,0-3.09-1.78,2.29,2.29,0,0,0-2.31,2.27s0,0,0,0A2.32,2.32,0,0,0,20.92,14.72Zm5.86-3.07a.77.77,0,1,1-.09,1.54H25c.81-1.12,1.17-1.55,1.81-1.55Zm-5.6,0c.64,0,1,.43,1.81,1.54H21.28A.77.77,0,1,1,21.18,11.65Z" style="fill:#d2b066"/><path d="M31.69,32.81v1.92a.38.38,0,0,1-.38.38H16.69a.38.38,0,0,1-.38-.38V15.11a.38.38,0,0,1,.38-.38h1.66a3.65,3.65,0,0,1-.73-1.32l-.06-.23H16.31a1.54,1.54,0,0,0-1.54,1.54h0V35.11a1.54,1.54,0,0,0,1.54,1.54H31.69a1.54,1.54,0,0,0,1.54-1.54V14.72a1.54,1.54,0,0,0-1.53-1.55H30.44a3.63,3.63,0,0,1-.79,1.54h1.66a.38.38,0,0,1,.38.38h0Z" style="fill:#fff"/><rect x="18.28" y="21.92" width="11.43" height="1.33" style="fill:#fff"/><rect x="18.28" y="26.24" width="11.43" height="1.33" style="fill:#fff"/><rect x="18.28" y="30.56" width="11.43" height="1.33" style="fill:#fff"/></g></g></g></g></svg>