<svg xmlns="http://www.w3.org/2000/svg" viewBox="0 0 48 48"><title>icon-vp-millions-recovered</title><g id="Layer_2" data-name="Layer 2"><g id="Layer_1-2" data-name="Layer 1"><circle cx="24" cy="24" r="24" style="fill:#620724"/><g id="Layer_2-2" data-name="Layer 2"><g id="Layer_1-2-2" data-name="Layer 1-2"><path d="M16.09,23.9H31.91c-.76-2.55-4-4.49-7.9-4.49S16.86,21.35,16.09,23.9Z" style="fill:#fff"/><circle cx="24.01" cy="14.15" r="4.39" style="fill:#fff"/><polygon points="12.45 26.41 13.64 26.77 13.64 26.09 34.38 26.09 34.38 26.77 35.56 26.41 35.56 24.9 12.45 24.9 12.45 26.41" style="fill:#d2b066"/><path d="M35.56,33.14A3,3,0,0,1,34.37,33v2.86H13.64V33a2.79,2.79,0,0,1-1.19.18V37H35.56Z" style="fill:#d2b066"/><rect x="16.06" y="29.68" width="6.78" height="0.85" style="fill:#d2b066"/><rect x="16.06" y="32.71" width="16.31" height="0.85" style="fill:#d2b066"/><path d="M24.69,28.06v3.15h7.15V28.06ZM31,30.36H25.54V28.9H31Z" style="fill:#d2b066"/><path d="M36.08,27.36a4.45,4.45,0,0,0-1,.24,2.41,2.41,0,0,0-1.83,2.64,2.28,2.28,0,0,0,2.15,1.89,4.32,4.32,0,0,0,1.07-.25c1.31-.42,1.12-1.24.9-2.47S37,27.33,36.08,27.36Z" style="fill:#fff"/><path d="M10.62,29.41c-.22,1.26-.4,2.05.92,2.47a4.32,4.32,0,0,0,1.07.25,2.28,2.28,0,0,0,2.15-1.89,2.41,2.41,0,0,0-1.82-2.64,4.43,4.43,0,0,0-1-.24C11,27.33,10.81,28.32,10.62,29.41Z" style="fill:#fff"/></g></g></g></g></svg>