<svg xmlns="http://www.w3.org/2000/svg" viewBox="0 0 2213.03 470.85"><title>logo-schmidt-kramer</title><g id="Layer_2" data-name="Layer 2"><g id="Layer_1-2" data-name="Layer 1"><path d="M470.81,235.4c0,130-105.4,235.44-235.42,235.44S0,365.44,0,235.4,105.38,0,235.4,0,470.81,105.42,470.81,235.4" style="fill:#231f20"/><path d="M235.39,12C112.2,12,12,112.23,12,235.42s100.21,223.4,223.4,223.4S458.83,358.6,458.83,235.42,358.6,12,235.39,12Z" style="fill:#620724"/><path d="M243.66,301.09V216.46c0-44.09,2.29-57.7,39.89-61.91v-8.75q-31.13,1-62.26,1c-20.75,0-41.82-.33-62.9-1v8.75c29.77,3.25,37.91,12.11,40.08,36.22-9-9.1-21.65-17.13-37.73-26.66-31.77-18.81-52.52-29.82-52.52-54.47,0-19.44,15.56-34.68,35.66-34.68,23.34,0,39.87,20.09,46,59.33H200l4.85-58c-17.17-10.38-35.65-15.57-56.73-15.57-49.91,0-82.67,29.51-82.67,66.46,0,28.86,18.47,44.42,51.87,63.88,31.45,18.14,51.88,28.86,51.88,53.49,0,23-14.27,38.27-36.64,38.27-30.14,0-58.05-25.3-72.31-72l-8.74,1.3c1.29,21.05,4.21,43.1,8.1,66.46,22.39,12.62,46,19.13,71.33,19.13,29.65,0,53.74-10.21,68.33-26.45v29.84c0,44.1-2.26,57.71-40.84,61.91v8.76q31.63-.95,63.24-1,32.06,0,64.18,1V363C245.95,359.13,243.66,345.51,243.66,301.09Z" style="fill:#fff"/><path d="M235,6.41C108.9,6.41,6.34,109,6.34,235S108.9,463.66,235,463.66,463.61,361.1,463.61,235,361,6.41,235,6.41Zm0,452c-123.19,0-223.4-100.22-223.4-223.4S111.77,11.63,235,11.63,458.39,111.85,458.39,235a222.17,222.17,0,0,1-42.55,131c-22.44-7.29-41.17-21.05-59-42.25l-72.31-84.93,30.8-31.45c21.74-22,41.52-44.09,83-52.85v-8.75q-21.89,1-46.69,1c-16.54,0-33.73-.33-52.21-1v8.75c13,2.28,19.15,6.49,19.15,13.93,0,13-26.57,40.21-71,93.06L302.34,329c18.16,22.05,35,35.34,51.57,39.57,13.62,3.64,28,5.18,54.67,6.95A223.11,223.11,0,0,1,235,458.45Z" style="fill:#fff"/><path d="M631.27,108.22c-2-24.89-12.1-43.72-37.34-43.72-20.18,0-33.3,13.45-33.3,32,0,54.83,97.55,55.5,97.55,133.53,0,38.68-22.2,61.89-62.22,61.89-38,0-60.89-27.91-61.56-68.62h24.22c.68,28.58,14.13,46.42,40,46.42,21.86,0,36-14.12,36-40,0-55.16-97.53-61.56-97.53-130.85,0-34.31,23.54-56.5,58.52-56.5s57.85,23.54,59.86,65.92Z" style="fill:#231f20"/><path d="M747.64,165.4c-2.36-26.24-12.78-35-27.58-35-20.52,0-29.26,12.78-29.26,70.64s8.74,70.63,29.26,70.63c15.47,0,24.22-8.07,28.26-38.34h23.54c-4,34.3-20.18,58.52-51.8,58.52-36.66,0-53.48-27.58-53.48-90.81s16.82-90.81,53.48-90.81c31.62,0,46.42,20.84,51.13,55.16Z" style="fill:#231f20"/><path d="M793.05,45.66h24.22v87.12c10.09-11.77,26.9-22.54,38.34-22.54,24.22,0,38.35,13.45,38.35,45.73V288.51H869.73V159.34c0-20.18-6-28.92-19.17-28.92-11.77,0-22.54,8.07-33.3,21.53V288.51H793.05Z" style="fill:#231f20"/><path d="M928.26,288.51V113.6h22.2v19.18c9.41-11.1,23.88-22.54,40.7-22.54,13.79,0,26.9,9.08,31.28,22.2,9.75-10.76,23.54-22.2,40.7-22.2,22.87,0,35.32,15.47,35.32,40.36V288.51h-24.22V154c0-18.17-5.39-23.55-18.17-23.55-14.8,0-23.2,10.42-30.6,18.16V288.51h-24.22V154c0-18.17-6.39-23.55-19.17-23.55-14.8,0-23.21,10.42-29.6,18.16V288.51Z" style="fill:#231f20"/><path d="M1134.11,45.66h24.22V73.91h-24.22Zm0,67.95h24.22V288.51h-24.22Z" style="fill:#231f20"/><path d="M1270,271.69h-.68c-8.41,12.45-20.52,20.19-36,20.19-27.58,0-50.46-23.55-50.46-90.82s22.87-90.81,50.46-90.81c13.11,0,24.22,8.07,32.28,16.15V45.65h24.22V241.42c0,22.87,1.35,37,4,47.09H1271Zm-4.38-125.79c-7.07-7.07-15.47-15.48-26.23-15.48-20.52,0-32.29,16.81-32.29,70.64s12.78,70.64,33,70.64c7.4,0,18.15-6.73,25.56-16.82Z" style="fill:#231f20"/><path d="M1301.94,113.6h23.54V55.08h24.22V113.6H1382v20.18H1349.7V256.22c0,10.09,5.39,17.49,17.5,17.49,4.71,0,10.76-2,14.79-3.36v18.16a71.4,71.4,0,0,1-22.87,3.37c-22.87,0-33.65-10.77-33.65-37.68V133.78h-23.54Z" style="fill:#231f20"/><polygon points="1394.1 288.51 1394.1 45.66 1435.81 45.66 1435.81 135.47 1436.48 135.47 1480.21 45.66 1521.92 45.66 1476.85 136.14 1527.64 288.51 1485.25 288.51 1451.28 175.49 1450.61 175.49 1435.81 202.4 1435.81 288.51 1394.1 288.51" style="fill:#620724"/><path d="M1526.62,288.51v-181h36v21.2h.67A48.87,48.87,0,0,1,1606,104.19h7.73v39.35c-6.73-1.69-13.11-3.7-24.22-3.7-12.78,0-25.22,8.07-25.22,24.21V288.51Z" style="fill:#620724"/><path d="M1617.78,160.7c2-36.67,25.22-56.51,60.54-56.51,35,0,54.83,16.14,54.83,49.11v116c0,5.72,1.35,13.12,2.36,19.17h-36c-.34-5-1.69-9.76-2-14.12-14.13,11.43-25.89,17.49-44.05,17.49-25.57,0-38.35-17.49-38.35-40.71,0-39.68,26.24-61.54,80.4-82.07V158.33c0-15.13-6-23.21-18.51-23.21-17.15,0-20.86,10.1-21.53,25.57Zm77.7,36c-34.31,19.51-42.71,32-42.71,47.77,0,11.77,6,16.48,17.48,16.48,10.43,0,18.85-7.74,25.23-16.82Z" style="fill:#620724"/><path d="M1829.34,288.51V148.24c0-9.08-5.72-13.11-13.11-13.11-8.07,0-15.47,5-24.22,11.44V288.51h-37.68v-181H1790v18.17c15.82-13.45,23.89-21.53,41.71-21.53,18.84,0,24.89,6.73,33,21.53,18.17-17.5,28.26-21.53,42.05-21.53,23.54,0,35.32,14.46,35.32,38V288.51h-37.67V148.24c0-9.08-6.06-13.11-13.46-13.11-8.07,0-15.47,5-23.88,11.44V288.51Z" style="fill:#620724"/><path d="M2076.9,205.09h-79.39v26.23c0,20.86,7.4,29.6,20.86,29.6s20.86-8.74,20.86-29.6v-4h37.67c-.67,38.34-16.49,64.58-58.53,64.58-43.05,0-58.52-27.58-58.52-67.28V171.45c0-39.69,15.47-67.27,58.52-67.27s58.53,27.58,58.53,67.27Zm-37.67-30.94v-9.42c0-20.86-7.4-29.6-20.86-29.6s-20.86,8.74-20.86,29.6v9.42Z" style="fill:#620724"/><path d="M2094.38,288.51v-181h36v21.2h.67a48.85,48.85,0,0,1,42.72-24.55h7.74v39.35c-6.73-1.69-13.12-3.7-24.22-3.7-12.78,0-25.22,8.07-25.22,24.21V288.51Z" style="fill:#620724"/><rect x="549.2" y="327.04" width="1663.84" height="3.67" style="fill:#231f20"/><rect x="566.41" y="354.69" width="8.07" height="72.85" style="fill:#231f20"/><polygon points="658.74 427.54 658.74 354.69 670.34 354.69 702.13 410.8 702.53 410.8 702.53 354.69 709.79 354.69 709.79 427.54 703.13 427.54 666.2 362.55 666 362.55 666 427.54 658.74 427.54" style="fill:#231f20"/><path d="M815.95,354.69v54.08c0,13.73-5.85,19.78-16.75,19.78-8.48,0-13.32-4.45-17.16-9.38l6.06-3.94A13.15,13.15,0,0,0,799,421.69c4.94,0,8.87-2.42,8.87-10.8v-56.2Z" style="fill:#231f20"/><path d="M905.56,354.69v51.46c0,8.48,6,15.54,17.46,15.54s17.46-7.07,17.46-15.54V354.69h8.07v50.85c0,14.53-10.5,23-25.53,23s-25.53-8.48-25.53-23V354.69Z" style="fill:#231f20"/><path d="M1030.07,427.54V354.69h23.41c15.74,0,24.32,7.07,24.32,19.18,0,10.29-6,16.13-14.53,19l15.44,34.71h-8.78l-14.73-33.09h-17.06v33.09Zm8.07-40h14.63c11.1,0,17-4.14,17-13.33,0-9.79-6.67-12.71-17.06-12.71h-14.52Z" style="fill:#231f20"/><polygon points="1170.03 396.87 1147.63 354.69 1156.51 354.69 1174.08 388.09 1191.62 354.69 1200.51 354.69 1178.11 396.87 1178.11 427.54 1170.03 427.54 1170.03 396.87" style="fill:#231f20"/><polygon points="1364.88 427.54 1364.88 354.69 1372.96 354.69 1372.96 420.68 1407.46 420.68 1407.46 427.54 1364.88 427.54" style="fill:#231f20"/><path d="M1473.06,427.54l22.4-72.85h12l22.4,72.85h-8.48l-6.86-22.81h-26.14l-6.86,22.81Zm17.36-29.67h22.1L1502,360.34h-1.11Z" style="fill:#231f20"/><polygon points="1591.92 354.69 1599.59 354.69 1613.12 412.81 1613.31 412.81 1627.44 354.69 1634.61 354.69 1649.14 412.81 1649.34 412.81 1662.66 354.69 1670.33 354.69 1653.07 427.54 1645.9 427.54 1630.97 368.62 1630.77 368.62 1616.64 427.54 1609.48 427.54 1591.92 354.69" style="fill:#231f20"/><polygon points="1757.71 396.87 1735.31 354.69 1744.18 354.69 1761.74 388.09 1779.3 354.69 1788.19 354.69 1765.78 396.87 1765.78 427.54 1757.71 427.54 1757.71 396.87" style="fill:#231f20"/><polygon points="1904.93 354.69 1904.93 361.55 1869.31 361.55 1869.31 385.97 1894.64 385.97 1894.64 392.83 1869.31 392.83 1869.31 420.68 1906.94 420.68 1906.94 427.54 1861.23 427.54 1861.23 354.69 1904.93 354.69" style="fill:#231f20"/><path d="M1982.63,427.54V354.69H2006c15.74,0,24.32,7.07,24.32,19.18,0,10.29-6,16.13-14.53,19l15.43,34.71h-8.77l-14.74-33.09H1990.7v33.09Zm8.07-40h14.63c11.1,0,17-4.14,17-13.33,0-9.79-6.66-12.71-17.06-12.71H1990.7Z" style="fill:#231f20"/><path d="M2145.6,373.26c-1.81-7.06-7.57-12.71-17-12.71-8.47,0-13.52,4-13.62,11.29-.2,16,41,11.91,41,35.33,0,10.59-5.95,21.39-24.52,21.39-15.94,0-22.19-10.3-26-19l7.37-2.63c2.92,7.67,8.37,14.74,19.07,14.74s16-5.65,16-13.12c0-18.57-41-13.11-41-36.13,0-10.49,8.78-18.76,21.9-18.76,11.3,0,20.18,5.95,24,18Z" style="fill:#231f20"/></g></g></svg>